<?xml version="1.0" encoding="UTF-8" standalone="no"?>
<svg
   id="Calque_1"
   data-name="Calque 1"
   viewBox="0 0 1000 490.78051"
   version="1.1"
   sodipodi:docname="GP_EXPLORER_-_LOGO.svg"
   width="1000"
   height="490.78049"
   inkscape:version="1.1.1 (3bf5ae0d25, 2021-09-20)"
   xmlns:inkscape="http://www.inkscape.org/namespaces/inkscape"
   xmlns:sodipodi="http://sodipodi.sourceforge.net/DTD/sodipodi-0.dtd"
   xmlns="http://www.w3.org/2000/svg"
   xmlns:svg="http://www.w3.org/2000/svg">
  <sodipodi:namedview
     id="namedview49"
     pagecolor="#ffffff"
     bordercolor="#666666"
     borderopacity="1.0"
     inkscape:pageshadow="2"
     inkscape:pageopacity="0.0"
     inkscape:pagecheckerboard="0"
     showgrid="false"
     inkscape:zoom="0.50729548"
     inkscape:cx="637.69541"
     inkscape:cy="312.44118"
     inkscape:window-width="1920"
     inkscape:window-height="991"
     inkscape:window-x="-9"
     inkscape:window-y="-9"
     inkscape:window-maximized="1"
     inkscape:current-layer="Calque_1" />
  <defs
     id="defs4">
    <style
       id="style2">.cls-1{fill:#e51e53;}.cls-2{fill:#fff;}</style>
  </defs>
  <path
     class="cls-1"
     d="m 260.8538,346.47757 c -42.27095,0 -73.35484,-39.6055 -63.32019,-80.66132 l 7.26728,-29.73549 A 122.94795,122.94795 0 0 1 324.22887,142.32737 H 451.5513 l 18.92472,-72.7904 H 326.56506 A 202.41766,202.41766 0 0 0 129.94085,223.89024 l -6.55388,26.81916 c -20.77486,84.98092 43.57232,166.98281 131.0619,166.98281 h 125.50365 l 18.50923,-71.19112 z"
     id="path6"
     style="fill:#e51e53;fill-opacity:1;stroke-width:0.783957" />
  <path
     class="cls-2"
     d="M 620.52536,142.32737 H 450.76735 L 432.313,214.79634 h 184.62968 a 22.272214,22.272214 0 0 1 21.3785,28.50467 l -4.05306,13.93875 a 30.190178,30.190178 0 0 1 -29.0064,21.77048 H 415.9675 l -17.18433,67.48301 H 601.77311 A 109.75396,109.75396 0 0 0 708.1639,263.7858 l 1.66982,-6.56172 C 724.66619,198.96825 680.64701,142.32737 620.52536,142.32737 Z"
     id="path8"
     style="fill:#000000;stroke-width:0.783957" />
  <path
     class="cls-1"
     d="M 424.13633,246.89937 432.313,214.75714 H 311.37198 a 35.481887,35.481887 0 0 0 -34.4941,27.22682 l -1.37977,5.7464 a 25.329646,25.329646 0 0 0 24.63193,31.225 h 24.7652 l 8.16883,-32.09519 z"
     id="path10"
     style="fill:#e51e53;fill-opacity:1;stroke-width:0.783957" />
  <polygon
     class="cls-2"
     points="530.33,1021.68 555.52,928.42 668.16,928.42 642.97,1021.68 "
     id="polygon12"
     style="fill:#000000"
     transform="matrix(0.78395684,0,0,0.78395684,-55.559022,-310.17253)" />
  <path
     class="cls-2"
     d="M 101.33426,3.6787776e-7 88.79095,52.25856 H 0 L 9.329086,17.0589 A 22.930738,22.930738 0 0 1 31.49939,3.6787776e-7 Z"
     id="path14"
     style="fill:#000000;stroke-width:0.783957" />
  <path
     class="cls-2"
     d="m 176.28838,52.25856 -8.31779,34.67441 a 22.938577,22.938577 0 0 1 -22.30357,17.60768 H 74.94627 L 88.79879,52.28208 Z"
     id="path16"
     style="fill:#000000;stroke-width:0.783957" />
  <polygon
     class="cls-2"
     points="308.32,414.83 295.74,462.31 409.01,462.31 420.4,414.83 "
     id="polygon18"
     style="fill:#000000"
     transform="matrix(0.78395684,0,0,0.78395684,-55.559022,-310.17253)" />
  <path
     class="cls-2"
     d="m 543.43105,437.81638 -1.8815,7.12617 h -47.03741 l -2.94768,11.17138 h 44.19949 l -1.88934,7.13401 h -44.23084 l -2.98688,11.32034 h 47.03741 l -1.88933,7.12616 h -55.66094 l 11.60256,-43.90158 z"
     id="path20"
     style="fill:#000000;stroke-width:0.783957" />
  <path
     class="cls-2"
     d="m 561.41502,437.81638 13.15479,16.23575 21.73912,-16.23575 h 12.03374 l -29.24943,21.85672 17.85854,22.03702 h -12.01806 l -13.32727,-16.46309 -22.00566,16.46309 H 537.55921 L 567.0595,459.6731 549.37344,437.8399 Z"
     id="path22"
     style="fill:#000000;stroke-width:0.783957" />
  <path
     class="cls-2"
     d="m 660.64043,437.81638 c 2.75169,0 5.4877,0.78396 7.29864,2.78305 1.81094,1.99909 2.50866,5.29954 1.5052,9.07038 l -1.41112,5.29954 a 16.306302,16.306302 0 0 1 -6.27166,9.06255 15.412592,15.412592 0 0 1 -8.77248,2.78304 h -36.2188 l -3.91979,14.89518 h -8.62352 l 11.59472,-43.90158 z m -41.99657,21.85672 h 35.11343 a 6.2010986,6.2010986 0 0 0 3.41021,-0.98779 5.0408425,5.0408425 0 0 0 2.10885,-3.30046 l 1.63063,-6.16974 c 0.51741,-1.95205 0.18815,-2.69681 -0.36062,-3.29262 a 3.9746612,3.9746612 0 0 0 -2.88496,-0.99562 h -35.09775 z"
     id="path24"
     style="fill:#000000;stroke-width:0.783957" />
  <path
     class="cls-2"
     d="m 689.84283,437.81638 -9.70539,36.7519 h 42.77269 l -1.8815,7.12616 H 669.6481 l 11.60256,-43.90158 z"
     id="path26"
     style="fill:#000000;stroke-width:0.783957" />
  <path
     class="cls-2"
     d="m 792.21975,437.81638 c 2.75169,0 5.4877,0.78396 7.30648,2.78305 1.81878,1.99909 2.50082,5.29954 1.50519,9.07038 l -5.33874,20.19472 a 16.259265,16.259265 0 0 1 -6.27166,9.06255 15.365554,15.365554 0 0 1 -8.77247,2.79088 h -37.62993 c -2.74385,0 -5.4877,-0.78395 -7.29864,-2.79088 -1.81094,-2.00693 -2.50082,-5.29171 -1.5052,-9.06255 l 5.33091,-20.16337 a 16.314142,16.314142 0 0 1 6.27165,-9.07038 15.396912,15.396912 0 0 1 8.77248,-2.78304 z m -41.87114,8.12179 a 5.0094842,5.0094842 0 0 0 -2.101,3.30046 l -5.55825,21.02572 c -0.51742,1.95206 -0.18815,2.70465 0.36062,3.30046 a 3.9197842,3.9197842 0 0 0 2.87712,0.99563 h 35.48972 a 6.2089382,6.2089382 0 0 0 3.41022,-0.99563 5.0408425,5.0408425 0 0 0 2.10884,-3.30046 l 5.55825,-21.03356 c 0.51742,-1.95205 0.18815,-2.69681 -0.36062,-3.29262 a 3.9197842,3.9197842 0 0 0 -2.88496,-0.99562 h -35.48972 a 6.2246173,6.2246173 0 0 0 -3.41022,0.99562 z"
     id="path28"
     style="fill:#000000;stroke-width:0.783957" />
  <path
     class="cls-2"
     d="m 814.20974,437.81638 h 44.83449 c 2.75169,0 5.4877,0.78396 7.29864,2.79089 1.81094,2.00692 2.50082,5.2917 1.5052,9.06254 l -1.40329,5.29954 a 16.369019,16.369019 0 0 1 -5.27603,8.28643 c 1.36409,2.03045 1.77175,4.97028 0.89371,8.28642 l -2.68113,10.1444 h -8.62352 l 2.79872,-10.57557 c 0.51741,-1.95206 0.18815,-2.70466 -0.36062,-3.30046 a 3.9589821,3.9589821 0 0 0 -2.88496,-0.99563 h -35.12126 l -3.91979,14.89518 h -8.62352 z m 2.8536,21.87239 h 35.11343 a 6.2010986,6.2010986 0 0 0 3.41021,-0.98778 c 0.87019,-0.59581 1.56792,-1.34841 2.10885,-3.30046 l 1.63063,-6.16974 c 0.50957,-1.95205 0.18815,-2.69681 -0.36062,-3.29262 a 3.9589821,3.9589821 0 0 0 -2.88497,-0.99562 h -35.12126 z"
     id="path30"
     style="fill:#000000;stroke-width:0.783957" />
  <path
     class="cls-2"
     d="m 936.7814,437.81638 -1.8893,7.12617 h -47.03745 l -2.95552,11.17138 h 44.19165 l -1.88934,7.13401 h -44.20733 l -2.99471,11.3125 h 47.03741 l -1.88934,7.12616 h -55.66093 l 11.60256,-43.90158 z"
     id="path32"
     style="fill:#000000;stroke-width:0.783957" />
  <path
     class="cls-2"
     d="m 945.8988,437.81638 h 44.8345 c 2.7517,0 5.4877,0.78396 7.2986,2.79089 1.811,2.00692 2.5087,5.2917 1.5131,9.06254 l -1.4033,5.29954 a 16.384698,16.384698 0 0 1 -5.2839,8.28643 c 1.3641,2.03045 1.7796,4.97028 0.9016,8.28642 l -2.6812,10.1444 h -8.6235 l 2.7909,-10.57557 c 0.5174,-1.95206 0.1882,-2.70466 -0.3528,-3.30046 A 3.9825008,3.9825008 0 0 0 982,466.81494 h -35.1134 l -3.9198,14.89518 h -8.6235 z m 2.8536,21.87239 h 35.1213 a 6.2010986,6.2010986 0 0 0 3.4102,-0.98778 5.0408425,5.0408425 0 0 0 2.101,-3.30046 l 1.6306,-6.16974 c 0.5174,-1.95205 0.1882,-2.69681 -0.3606,-3.29262 a 3.9197842,3.9197842 0 0 0 -2.885,-0.99562 h -35.1134 z"
     id="path34"
     style="fill:#000000;stroke-width:0.783957" />
  <path
     class="cls-2"
     d="m 701.43755,388.12919 -13.71141,0.0706 -4.23337,14.38561 13.59382,-0.0706 q 3.73163,0 5.14275,-1.5052 c 0.94075,-0.98778 1.81878,-2.86928 2.62626,-5.62881 l 0.0784,-0.2587 c 0.78396,-2.75953 1.06619,-4.62535 0.78396,-5.57393 -0.28222,-0.94859 -1.74038,-1.43465 -4.2804,-1.41897 z"
     id="path36"
     style="fill:#000000;stroke-width:0.783957" />
  <path
     class="cls-2"
     d="m 803.71256,387.85481 a 5.6915267,5.6915267 0 0 0 -1.23865,-0.29006 c -0.33711,0 -0.78396,0 -1.22298,0 h -0.635 l -12.79418,0.0627 -2.14804,7.30648 12.19837,-0.0627 h 1.03482 c 1.82662,0 3.03391,-0.2587 3.62972,-0.73692 0.59581,-0.47821 1.1289,-1.56791 1.62279,-3.2299 a 6.3108526,6.3108526 0 0 0 0.35278,-2.07748 1.0505022,1.0505022 0 0 0 -0.79963,-0.97211 z"
     id="path38"
     style="fill:#000000;stroke-width:0.783957" />
  <path
     class="cls-2"
     d="m 758.13331,387.75289 -11.60257,0.0627 -2.21075,7.51031 11.75935,-0.0627 a 6.757708,6.757708 0 0 0 3.44941,-0.7134 c 0.78396,-0.47037 1.35624,-1.45816 1.8031,-2.95552 0.44686,-1.49735 0.45469,-2.62625 0,-3.13582 -0.4547,-0.50958 -1.57575,-0.7134 -3.19854,-0.70557 z"
     id="path40"
     style="fill:#000000;stroke-width:0.783957" />
  <path
     class="cls-2"
     d="m 566.90271,389.11698 a 4.9467677,4.9467677 0 0 0 -1.24649,-0.29006 c -0.32926,0 -0.73692,-0.0392 -1.21513,-0.0392 h -0.6742 l -12.80202,0.0627 -2.09316,7.26728 12.19836,-0.0627 h 1.03483 c 1.82662,0 3.03391,-0.25087 3.62972,-0.73692 0.5958,-0.48605 1.1289,-1.56792 1.62279,-3.2299 a 6.2716548,6.2716548 0 0 0 0.35278,-2.07749 1.0426626,1.0426626 0 0 0 -0.80748,-0.89371 z"
     id="path42"
     style="fill:#000000;stroke-width:0.783957" />
  <polygon
     class="cls-2"
     points="830.87,904.62 845.62,904.55 842.77,889.42 "
     id="polygon44"
     style="fill:#000000"
     transform="matrix(0.78395684,0,0,0.78395684,-55.559022,-310.17253)" />
  <path
     class="cls-2"
     d="M 893.96167,373.16346 H 480.27548 l -12.0259,44.50523 h 426.20598 l 8.76464,-32.42446 a 9.5799526,9.5799526 0 0 0 -9.25853,-12.08077 z m -361.60794,18.08588 -0.14895,0.50173 -7.91012,0.047 a 4.7821368,4.7821368 0 0 0 0.22735,-1.74038 1.1288979,1.1288979 0 0 0 -0.72908,-1.01131 4.2490461,4.2490461 0 0 0 -1.34057,-0.35278 c -0.4547,-0.0392 -1.12106,-0.0627 -1.99125,-0.0549 h -9.32909 c -1.90501,0 -3.26126,0.50957 -4.05305,1.49735 a 15.318517,15.318517 0 0 0 -2.22644,5.01733 l -0.78396,2.62625 c -0.57229,1.95206 -0.78395,3.40238 -0.52525,4.35096 a 1.8971756,1.8971756 0 0 0 1.66983,1.56792 c 0.89371,0.12543 1.56791,0.19599 2.08532,0.2195 0.51742,0.0235 1.12106,0.0392 1.88934,0 h 7.18104 a 7.3378361,7.3378361 0 0 0 3.41022,-0.73691 4.2255274,4.2255274 0 0 0 1.97557,-2.72033 l 0.19599,-0.78396 -10.19144,0.0549 1.56791,-5.30739 18.16428,-0.0941 -1.70902,5.9424 q -1.56792,5.22115 -3.96683,7.75333 -2.3989,2.53218 -7.32215,2.5557 l -4.22553,0.0706 h -4.79782 -4.15497 a 29.508136,29.508136 0 0 1 -7.05561,-0.61932 4.7037411,4.7037411 0 0 1 -3.39453,-2.8928 q -0.90939,-2.23428 0.45469,-6.85962 l 0.96427,-3.56701 q 2.43811,-8.27858 5.28387,-11.46929 2.84576,-3.1907 9.8857,-3.18286 l 6.07566,-0.15679 2.24212,-0.0549 5.36226,0.10191 c 3.49645,0 5.84832,0.61149 7.05561,1.88934 1.2073,1.27785 1.2465,3.70812 0.16463,7.40839 z m 43.50961,-0.47821 a 27.97158,27.97158 0 0 1 -1.16026,3.2691 9.0938994,9.0938994 0 0 1 -1.48951,2.35187 6.6165958,6.6165958 0 0 1 -1.82662,1.48952 28.316521,28.316521 0 0 1 -3.74732,1.39544 q 2.68113,0.36062 3.65324,1.48168 c 0.65853,0.78396 0.70556,2.05397 0.15679,3.91978 l -1.56791,5.43282 -8.18451,0.047 0.78396,-2.72033 a 13.366464,13.366464 0 0 0 0.635,-3.3083 c 0,-0.78395 -0.91723,-1.22297 -2.79872,-1.21513 l -13.46838,0.0706 -2.15588,7.29863 h -8.06692 l 8.32562,-28.30084 24.6868,-0.12543 c 3.13583,0 5.25251,0.635 6.27166,1.93637 1.01914,1.30137 0.93291,3.63756 -0.047,6.97722 z m 33.59255,19.14422 -1.00346,-5.11923 -17.24705,0.0862 -4.10794,5.1506 -8.89791,0.047 23.10321,-28.38708 10.88916,-0.0549 6.13054,28.22245 z m 53.51289,-0.27438 -12.86473,0.0706 -9.69754,-21.16684 -6.27166,21.26091 h -7.5887 l 8.32562,-28.30868 12.84905,-0.0627 9.72107,21.16684 6.27165,-21.22171 h 7.58871 z m 50.47899,-15.82025 -0.47038,1.61495 -0.26654,0.89371 -0.21951,0.78396 c -0.39198,1.33273 -0.68988,2.26563 -0.88587,2.79873 -0.19599,0.53309 -0.67421,1.63847 -1.4268,3.29261 a 10.465824,10.465824 0 0 1 -4.0217,4.36664 11.673117,11.673117 0 0 1 -6.42845,1.89718 l -26.34879,0.13327 8.32562,-28.32436 23.36976,-0.12543 q 7.19672,0 8.90575,2.50082 1.70902,2.50082 -0.53309,10.16792 z m 56.07643,-2.57138 q -1.75606,5.93456 -4.27257,8.38834 -2.5165,2.45379 -8.29426,2.4773 h -2.06181 l -12.59818,0.0706 -2.06965,7.05561 -8.06691,0.047 8.32562,-28.30868 21.4569,-0.10976 q 5.99727,0 7.71413,2.03829 c 1.14458,1.37193 1.07402,4.16281 -0.13327,8.34914 z m 43.11763,-1.70902 a 26.599656,26.599656 0 0 1 -1.16026,3.2691 8.8351936,8.8351936 0 0 1 -1.48952,2.35187 6.5068418,6.5068418 0 0 1 -1.82662,1.48951 27.43849,27.43849 0 0 1 -3.73947,1.39545 q 2.66545,0.3763 3.65324,1.48952 0.98778,1.11321 0.14895,3.91978 l -1.56792,5.43282 h -8.19234 l 0.78395,-2.71249 a 13.429181,13.429181 0 0 0 0.63501,-3.3083 c 0,-0.82315 -0.91723,-1.22297 -2.79873,-1.21513 l -13.46838,0.0706 -2.13236,7.2516 -8.06692,0.0392 8.32563,-28.30084 24.67896,-0.12543 q 4.76646,0 6.27165,1.93637 1.5052,1.93638 -0.0157,7.02426 z m 4.44503,19.30101 8.32562,-28.30868 h 8.06692 l -8.32562,28.30868 z m 55.9118,-0.29006 -11.05379,0.0549 -6.27165,-8.97631 -11.52417,9.08606 -10.97539,0.0549 18.7444,-14.5032 -9.65834,-13.77413 10.76372,-0.0549 6.00511,8.44321 10.9754,-8.52945 10.39527,-0.0549 -17.63903,13.86035 z"
     id="path46"
     style="fill:#000000;stroke-width:0.783957" />
</svg>
